# xmcd
#
# Track frame offsets: 
#        150
#        15592
#        33052
#        48520
#        77360
#        95297
#        115110
#        138427
#        158100
#        171190
#        184377
#        211215
#
# Disc length: 3057 seconds
#
# Revision: 0
# Processed by: cddbd v1.5PL3 Copyright (c) Steve Scherf et al.
# Submitted via: ExactAudioCopy v0.90b4
#
DISCID=8e0bef0c
DTITLE=Vetrhus Bluesband - Second Time Around
DYEAR=1998
DGENRE=Blues
TTITLE0=Let the bumblebee buzz
TTITLE1=Make up your mind
TTITLE2=Love my baby
TTITLE3=My baby just loves $
TTITLE4=Bad girls make you cry
TTITLE5=I'm tore down
TTITLE6=No one but a fool
TTITLE7=Travellin'man
TTITLE8=My baby's a witch
TTITLE9=Love light
TTITLE10=Workin' blues
TTITLE11=I'm rollin'
EXTD=
EXTT0=
EXTT1=
EXTT2=
EXTT3=
EXTT4=
EXTT5=
EXTT6=
EXTT7=
EXTT8=
EXTT9=
EXTT10=
EXTT11=
PLAYORDER=
